<svg xmlns="http://www.w3.org/2000/svg" xmlns:xlink="http://www.w3.org/1999/xlink" version="1.1" id="Capa_1" x="0px" y="0px" width="612px" height="612px" viewBox="0 0 612 612" style="enable-background:new 0 0 612 612;" xml:space="preserve" ><rect id="svgEditorBackground" x="0" y="0" width="612" height="612" style="fill: none; stroke: none;"/>
<g>
	
<path d="M420.75,267.75h-229.5c-21.13300000000001,0,-38.25,17.11700000000002,-38.25,38.25c0,21.13299999999998,17.11699999999999,38.25,38.25,38.25h229.5c21.13299999999998,0,38.25,-17.11700000000002,38.25,-38.25c0,-21.13299999999998,-17.11700000000002,-38.25,-38.25,-38.25ZM420.75,401.625h-229.5c-21.13300000000001,0,-38.25,17.11700000000002,-38.25,38.25s17.11699999999999,38.25,38.25,38.25h229.5c21.13299999999998,0,38.25,-17.11700000000002,38.25,-38.25s-17.11700000000002,-38.25,-38.25,-38.25ZM420.75,133.875h-229.5c-21.13300000000001,0,-38.25,17.11699999999999,-38.25,38.25s17.11699999999999,38.25,38.25,38.25h229.5c21.13299999999998,0,38.25,-17.11699999999999,38.25,-38.25s-17.11700000000002,-38.25,-38.25,-38.25ZM554.625,0h-497.25c-31.69,0,-57.375,25.685,-57.375,57.375v497.25c0,31.690000000000055,25.685,57.375,57.375,57.375h497.25c31.690000000000055,0,57.375,-25.684999999999945,57.375,-57.375v-497.25c0,-31.69,-25.684999999999945,-57.375,-57.375,-57.375ZM535.5,516.375c0,10.557000000000016,-8.567999999999984,19.125,-19.125,19.125h-420.75c-10.557000000000002,0,-19.125,-8.567999999999984,-19.125,-19.125v-420.75c0,-10.557000000000002,8.567999999999998,-19.125,19.125,-19.125h420.75c10.557000000000016,0,19.125,8.567999999999998,19.125,19.125v420.75Z" stroke="#034F84" fill="#034f84"/></g>
<g>
</g>
<g>
</g>
<g>
</g>
<g>
</g>
<g>
</g>
<g>
</g>
<g>
</g>
<g>
</g>
<g>
</g>
<g>
</g>
<g>
</g>
<g>
</g>
<g>
</g>
<g>
</g>
<g>
</g>
</svg>